<?xml version="1.0" standalone="no"?>
<!DOCTYPE svg PUBLIC "-//W3C//DTD SVG 20010904//EN"
 "http://www.w3.org/TR/2001/REC-SVG-20010904/DTD/svg10.dtd">
<svg version="1.0" xmlns="http://www.w3.org/2000/svg"
 width="512.000000pt" height="512.000000pt" viewBox="0 0 512.000000 512.000000"
 preserveAspectRatio="xMidYMid meet">
<metadata>
Created by potrace 1.11, written by Peter Selinger 2001-2013
</metadata>
<g transform="translate(0.000000,512.000000) scale(0.100000,-0.100000)"
fill="#000000" stroke="none">
<path d="M2446 5069 c-182 -73 -285 -250 -255 -439 18 -114 96 -225 197 -283
29 -16 51 -35 49 -41 -2 -6 -30 -95 -62 -198 -43 -139 -63 -188 -74 -189 -9 0
-333 -1 -721 -1 -553 0 -718 -4 -770 -14 -162 -34 -307 -155 -378 -318 -37
-83 -38 -133 -37 -986 1 -542 6 -846 12 -865 25 -73 48 -123 76 -165 63 -95
180 -181 293 -216 56 -17 152 -18 1782 -19 1566 -1 1728 0 1785 15 200 52 350
206 391 402 21 97 21 1659 0 1749 -23 102 -69 185 -143 258 -80 79 -149 118
-262 148 -13 3 -349 7 -747 8 -397 1 -726 5 -730 9 -3 4 -34 94 -68 201 l-61
193 47 26 c62 34 120 90 154 148 118 203 38 460 -174 562 -57 27 -76 31 -160
33 -74 1 -106 -3 -144 -18z m1834 -1567 c73 -36 70 6 70 -875 0 -864 2 -833
-58 -874 -26 -17 -103 -18 -1722 -18 -1679 0 -1695 0 -1722 20 -60 44 -58 9
-58 872 0 744 1 790 18 822 10 19 34 43 53 53 32 17 106 18 1709 18 1575 0
1677 -1 1710 -18z"/>
<path d="M1615 2971 c-94 -27 -160 -66 -225 -131 -131 -133 -189 -353 -119
-454 41 -61 108 -85 180 -66 73 20 116 74 126 158 12 104 66 162 158 170 45 4
62 0 99 -22 46 -27 86 -90 86 -137 0 -102 84 -182 184 -174 136 12 188 145
127 323 -33 93 -63 142 -127 205 -127 126 -324 177 -489 128z"/>
<path d="M3237 2965 c-159 -54 -275 -169 -327 -324 -40 -120 -32 -221 22 -278
27 -29 95 -54 133 -49 17 2 36 4 42 5 24 2 92 72 102 104 5 18 12 52 15 76 15
116 130 182 237 137 63 -26 94 -75 105 -163 9 -79 39 -119 107 -148 54 -23
135 -9 174 30 35 36 53 82 53 140 0 199 -137 389 -335 465 -89 34 -235 37
-328 5z"/>
<path d="M1685 969 c-17 -5 -41 -18 -53 -29 -48 -45 -48 -51 -47 -461 l1 -386
27 -36 c30 -39 84 -62 127 -54 15 4 208 96 429 206 l402 200 402 -201 c268
-134 415 -202 442 -205 46 -4 93 20 122 63 16 25 18 60 18 403 0 207 -1 388
-3 402 -8 54 -85 111 -142 103 -14 -2 -208 -95 -433 -206 l-407 -203 -398 199
c-218 109 -410 202 -427 206 -16 3 -44 3 -60 -1z"/>
</g>
</svg>
