<?xml version="1.0" encoding="UTF-8"?>
<svg width="241px" height="60px" viewBox="0 0 241 60" version="1.1" xmlns="http://www.w3.org/2000/svg" xmlns:xlink="http://www.w3.org/1999/xlink">
    <!-- Generator: Sketch 43.2 (39069) - http://www.bohemiancoding.com/sketch -->
    <title>logo_gray</title>
    <desc>Created with Sketch.</desc>
    <defs></defs>
    <g id="Page-1" stroke="none" stroke-width="1" fill="none" fill-rule="evenodd">
        <g id="logo_gray" fill="#333333">
            <path d="M72.5887135,21.6621073 C74.8633724,21.6621073 76.1756756,22.3623426 77.3567485,23.500225 C77.706696,23.8503426 78.0566436,23.8941073 78.2753608,23.8941073 C78.9752558,23.8941073 79.5439205,23.3251661 79.5439205,22.6249308 C79.5439205,22.2310485 79.3689468,21.9684602 79.2377164,21.7934014 C77.8816698,19.9990485 75.5632675,18.9924602 72.5887135,18.9924602 C68.8705211,18.9924602 65.8959672,20.6555191 65.8959672,24.2879897 C65.8959672,31.4654014 77.4004919,29.6710485 77.4004919,34.1788132 C77.4004919,36.4545779 75.2570634,37.2861073 72.7636873,37.2861073 C70.3140546,37.2861073 68.564317,36.4983426 67.2082704,35.1416367 C66.8583229,34.7915191 66.5083753,34.7039897 66.2459147,34.7039897 C65.5460196,34.7039897 64.9773549,35.2729308 64.9773549,35.9731661 C64.9773549,36.2795191 65.0648418,36.4983426 65.283559,36.8046955 C66.4208885,38.2489308 69.1767252,39.9557544 72.7636873,39.9557544 C76.9193141,39.9557544 80.2000721,38.1614014 80.2000721,34.1788132 C80.2000721,27.1764602 68.6955473,28.8832838 68.6955473,24.2879897 C68.6955473,22.2748132 70.6202587,21.6621073 72.5887135,21.6621073 Z M84.6873024,19.2112838 C83.8999205,19.2112838 83.2875123,19.8239897 83.2875123,20.6117544 L83.2875123,32.0343426 C83.2875123,36.1919897 84.6873024,39.9995191 91.4237922,39.9995191 C98.2040254,39.9995191 99.5600721,36.1919897 99.5600721,32.0343426 L99.5600721,20.6117544 C99.5600721,19.8239897 98.9476639,19.2112838 98.2040254,19.2112838 C97.4166435,19.2112838 96.7604919,19.8239897 96.7604919,20.6117544 L96.7604919,32.0343426 C96.7604919,34.8790485 95.8418797,37.329872 91.4237922,37.329872 C87.0057047,37.329872 86.0870925,34.8790485 86.0870925,32.0343426 L86.0870925,20.6117544 C86.0870925,19.8239897 85.4309409,19.2112838 84.6873024,19.2112838 Z M105.009658,19.2112838 C105.753297,19.2112838 106.409448,19.8239897 106.409448,20.6117544 L106.409448,22.012225 C107.240574,20.524225 109.427746,18.9486955 112.358556,18.9486955 C118.045203,18.9486955 121.500935,22.2748132 121.500935,29.452225 C121.500935,36.6296367 118.045203,39.9995191 112.358556,39.9995191 C109.427746,39.9995191 107.32806,38.4239897 106.409448,36.9359897 L106.409448,46.8268132 C106.409448,47.5708132 105.753297,48.2272838 105.009658,48.2272838 C104.26602,48.2272838 103.609868,47.5708132 103.609868,46.8268132 L103.609868,20.6117544 C103.609868,19.8239897 104.26602,19.2112838 105.009658,19.2112838 Z M106.321961,29.452225 C106.321961,35.097872 108.946568,37.4611661 112.358556,37.4611661 C116.382953,37.4611661 118.657611,34.9228132 118.657611,29.452225 C118.657611,23.9816367 116.295466,21.4870485 112.271069,21.4870485 C109.034055,21.4870485 106.321961,23.7628132 106.321961,29.452225 Z M126.075652,19.2112838 C126.819291,19.2112838 127.475442,19.8239897 127.475442,20.6117544 L127.475442,22.012225 C128.306568,20.524225 130.49374,18.9486955 133.42455,18.9486955 C139.111197,18.9486955 142.566929,22.2748132 142.566929,29.452225 C142.566929,36.6296367 139.111197,39.9995191 133.42455,39.9995191 C130.49374,39.9995191 128.394055,38.4239897 127.475442,36.9359897 L127.475442,46.8268132 C127.475442,47.5708132 126.819291,48.2272838 126.075652,48.2272838 C125.332014,48.2272838 124.675862,47.5708132 124.675862,46.8268132 L124.675862,20.6117544 C124.675862,19.8239897 125.332014,19.2112838 126.075652,19.2112838 Z M127.387955,29.452225 C127.387955,35.097872 130.012562,37.4611661 133.42455,37.4611661 C137.448947,37.4611661 139.723606,34.9228132 139.723606,29.452225 C139.723606,23.9816367 137.36146,21.4870485 133.337063,21.4870485 C130.100049,21.4870485 127.387955,23.7628132 127.387955,29.452225 Z M153.615675,18.9486955 C159.302323,18.9486955 162.801798,22.2748132 162.801798,29.452225 C162.801798,36.6296367 159.302323,39.9995191 153.615675,39.9995191 C147.972772,39.9995191 144.429553,36.6296367 144.429553,29.452225 C144.429553,22.2748132 147.972772,18.9486955 153.615675,18.9486955 Z M153.615675,37.4611661 C157.640072,37.4611661 159.958474,35.0541073 159.958474,29.452225 C159.958474,23.937872 157.640072,21.4870485 153.615675,21.4870485 C149.591279,21.4870485 147.272877,23.937872 147.272877,29.452225 C147.272877,35.0541073 149.591279,37.4611661 153.615675,37.4611661 Z M168.776305,20.6117544 C168.776305,19.8239897 168.163897,19.2112838 167.376515,19.2112838 C166.589133,19.2112838 165.976725,19.8239897 165.976725,20.6117544 L165.976725,38.380225 C165.976725,39.1679897 166.589133,39.7806955 167.376515,39.7806955 C168.163897,39.7806955 168.776305,39.1679897 168.776305,38.380225 L168.776305,28.5769308 C168.776305,24.5505779 170.832247,21.7496367 174.856643,21.7496367 C175.600282,21.7496367 176.21269,21.1369308 176.21269,20.3929308 C176.21269,19.6489308 175.600282,19.036225 174.856643,19.036225 C171.838346,19.036225 169.651174,20.524225 168.776305,22.5374014 L168.776305,20.6117544 Z M181.109133,19.5614014 L179.403139,19.5614014 C178.659501,19.5614014 178.090836,20.1303426 178.090836,20.8743426 C178.090836,21.6183426 178.659501,22.1872838 179.403139,22.1872838 L181.109133,22.1872838 L181.109133,34.2663426 C181.109133,37.4611661 182.990101,39.7806955 186.445833,39.7806955 C187.189471,39.7806955 187.80188,39.2117544 187.80188,38.4677544 C187.80188,37.7237544 187.189471,37.1548132 186.445833,37.1548132 C184.958556,37.1548132 183.908713,36.148225 183.908713,34.2663426 L183.908713,22.1872838 L186.752037,22.1872838 C187.495675,22.1872838 188.06434,21.6183426 188.06434,20.8743426 C188.06434,20.1303426 187.495675,19.5614014 186.752037,19.5614014 L183.908713,19.5614014 L183.908713,14.9661073 C183.908713,14.2221073 183.296305,13.5656367 182.508923,13.5656367 C181.765285,13.5656367 181.109133,14.2221073 181.109133,14.9661073 L181.109133,19.5614014 Z M195.660177,21.5745779 C196.316329,20.4804602 198.37227,18.9486955 200.821903,18.9486955 C206.552294,18.9486955 209.701821,22.3185779 209.701821,29.452225 C209.701821,36.585872 206.50855,39.9995191 200.821903,39.9995191 C198.634731,39.9995191 196.710019,39.2992838 195.660177,38.1176367 L195.660177,45.8639897 C195.660177,47.1769308 194.610334,48.2272838 193.298031,48.2272838 C191.985728,48.2272838 190.935885,47.1769308 190.935885,45.8639897 L190.935885,21.5745779 C190.935885,20.2616367 191.985728,19.2112838 193.298031,19.2112838 C194.610334,19.2112838 195.660177,20.2616367 195.660177,21.5745779 Z M204.890043,29.4959897 C204.890043,25.1632838 203.271536,22.9750485 200.209495,22.9750485 C197.147454,22.9750485 195.528947,25.1632838 195.528947,29.4959897 C195.528947,33.7849308 197.147454,35.9731661 200.209495,35.9731661 C203.271536,35.9731661 204.890043,33.7849308 204.890043,29.4959897 Z M220.678603,23.1501073 C218.753891,23.1501073 217.397845,24.0254014 216.304259,24.8131661 C215.866824,25.1195191 215.516877,25.2508132 214.991955,25.2508132 C213.854626,25.2508132 212.936014,24.3317544 212.936014,23.193872 C212.936014,22.7124602 213.110987,22.1872838 213.504678,21.7496367 C214.729495,20.3929308 216.916667,18.9486955 220.678603,18.9486955 C226.102789,18.9486955 229.339804,21.6183426 229.339804,26.2574014 L229.339804,37.4611661 C229.339804,38.7303426 228.289961,39.7806955 227.021401,39.7806955 C225.752842,39.7806955 224.702999,38.7303426 224.702999,37.4611661 C223.521926,39.3430485 221.597215,39.9995191 218.972608,39.9995191 C214.685751,39.9995191 211.842428,37.329872 211.842428,33.3910485 C211.842428,29.3209308 215.123186,27.220225 218.928865,27.220225 L224.659256,27.220225 L224.659256,26.4324602 C224.659256,24.4630485 223.215722,23.1501073 220.678603,23.1501073 Z M220.197425,36.0606955 C222.515827,36.0606955 224.659256,34.5726955 224.659256,32.121872 L224.659256,30.8964602 L219.541273,30.8964602 C217.616562,30.8964602 216.566719,31.8155191 216.566719,33.3910485 C216.566719,35.0541073 217.747792,36.0606955 220.197425,36.0606955 Z M234.876877,8.27010731 C233.564573,8.27010731 232.514731,9.32046025 232.514731,10.6334014 L232.514731,34.1788132 C232.514731,37.8550485 234.658159,39.7806955 238.070148,39.7806955 C239.294964,39.7806955 240.25732,38.817872 240.25732,37.5924602 C240.25732,36.3670485 239.294964,35.404225 238.070148,35.404225 C237.763944,35.404225 237.239022,35.1416367 237.239022,34.6164602 L237.239022,10.6334014 C237.239022,9.32046025 236.18918,8.27010731 234.876877,8.27010731 Z" id="supportpal"></path>
            <path d="M35.1542041,48.7397647 L25.875656,53.3689412 L16.5978134,48.7397647 C15.559965,48.2223529 14.3400875,48.9769412 14.3400875,50.1374118 L14.3400875,58.4357647 C14.3400875,59.5962353 15.559965,60.3515294 16.5978134,59.8334118 L25.875656,55.2035294 L35.1542041,59.8334118 C36.1920525,60.3515294 37.41193,59.5962353 37.41193,58.4357647 L37.41193,50.1374118 C37.41193,48.9769412 36.1920525,48.2223529 35.1542041,48.7397647" id="Fill-3"></path>
            <path d="M25.5412303,5.61529412 L22.4305073,15.5491765 C22.0960816,16.6171765 22.5843149,17.8729412 23.3335977,17.8729412 L28.6921691,17.8729412 C29.4414519,17.8729412 29.9289796,16.6171765 29.5945539,15.5491765 L26.4838309,5.61529412 L25.5412303,5.61529412" id="Fill-5"></path>
            <path d="M30.6796735,4.98917647 C30.6796735,7.56776471 28.5905714,9.65788235 26.0125306,9.65788235 C23.4351953,9.65788235 21.3460933,7.56776471 21.3460933,4.98917647 C21.3460933,2.41058824 23.4351953,0.319764706 26.0125306,0.319764706 C28.5905714,0.319764706 30.6796735,2.41058824 30.6796735,4.98917647" id="Fill-6"></path>
            <path d="M46.7257551,38.1712941 C46.7257551,39.0218824 46.0364431,39.7136471 45.1890904,39.7136471 L6.56292711,39.7136471 C5.71557434,39.7136471 5.02696793,39.0218824 5.02696793,38.1712941 L5.02696793,20.2849412 C5.02696793,19.4343529 5.71557434,18.7425882 6.56292711,18.7425882 L45.1890904,18.7425882 C46.0364431,18.7425882 46.7257551,19.4343529 46.7257551,20.2849412 L46.7257551,38.1712941 L46.7257551,38.1712941 Z M51.3752595,20.2849412 C51.3752595,16.8691765 48.6003732,14.0901176 45.1890904,14.0901176 L6.56292711,14.0901176 C3.15093878,14.0901176 0.376052478,16.8691765 0.376052478,20.2849412 L0.376052478,38.1712941 C0.376052478,41.5877647 3.15093878,44.3668235 6.56292711,44.3668235 L45.1890904,44.3668235 C48.6003732,44.3668235 51.3752595,41.5877647 51.3752595,38.1712941 L51.3752595,20.2849412 L51.3752595,20.2849412 Z" id="Fill-7"></path>
            <path d="M20.2433353,32.9082353 C19.1497493,32.9082353 18.2628863,32.0209412 18.2628863,30.9268235 C18.2628863,29.8164706 17.3605015,28.9129412 16.250688,28.9129412 C15.1408746,28.9129412 14.2377843,29.8164706 14.2377843,30.9268235 C14.2377843,32.0209412 13.3516268,32.9082353 12.2573353,32.9082353 C11.1637493,32.9082353 10.2775918,32.0209412 10.2775918,30.9268235 C10.2775918,27.6317647 12.9572303,24.9508235 16.250688,24.9508235 C19.5441458,24.9508235 22.2237843,27.6317647 22.2237843,30.9268235 C22.2237843,32.0209412 21.3376268,32.9082353 20.2433353,32.9082353" id="Fill-8"></path>
            <path d="M39.4946822,32.9082353 C38.4003907,32.9082353 37.5142332,32.0209412 37.5142332,30.9268235 C37.5142332,29.8164706 36.6111429,28.9129412 35.5013294,28.9129412 C34.3922216,28.9129412 33.4891312,29.8164706 33.4891312,30.9268235 C33.4891312,32.0209412 32.6022682,32.9082353 31.5086822,32.9082353 C30.4143907,32.9082353 29.5282332,32.0209412 29.5282332,30.9268235 C29.5282332,27.6317647 32.2078717,24.9508235 35.5013294,24.9508235 C38.7947872,24.9508235 41.4744257,27.6317647 41.4744257,30.9268235 C41.4744257,32.0209412 40.5882682,32.9082353 39.4946822,32.9082353" id="Fill-9"></path>
        </g>
    </g>
</svg>