<?xml version="1.0" encoding="UTF-8"?>
<svg width="195px" height="50px" viewBox="0 0 195 50" version="1.1" xmlns="http://www.w3.org/2000/svg" xmlns:xlink="http://www.w3.org/1999/xlink">
    <!-- Generator: Sketch 43.2 (39069) - http://www.bohemiancoding.com/sketch -->
    <title>logo_colour</title>
    <desc>Created with Sketch.</desc>
    <defs></defs>
    <g id="Page-1" stroke="none" stroke-width="1" fill="none" fill-rule="evenodd">
        <g id="logo_color" fill="#454545">
            <path d="M29.2652711,40.6164706 L21.5410392,44.4741176 L13.8173946,40.6164706 C12.9534036,40.1852941 11.9378765,40.8141176 11.9378765,41.7811765 L11.9378765,48.6964706 C11.9378765,49.6635294 12.9534036,50.2929412 13.8173946,49.8611765 L21.5410392,46.0029412 L29.2652711,49.8611765 C30.129262,50.2929412 31.1447892,49.6635294 31.1447892,48.6964706 L31.1447892,41.7811765 C31.1447892,40.8141176 30.129262,40.1852941 29.2652711,40.6164706" id="Fill-3"></path>
            <path d="M21.2626355,4.67941176 L18.673012,12.9576471 C18.3946084,13.8476471 18.8010542,14.8941176 19.4248193,14.8941176 L23.885738,14.8941176 C24.509503,14.8941176 24.9153614,13.8476471 24.6369578,12.9576471 L22.0473343,4.67941176 L21.2626355,4.67941176" id="Fill-5"></path>
            <path d="M25.5403012,4.15764706 C25.5403012,6.30647059 23.8011596,8.04823529 21.6549849,8.04823529 C19.5093976,8.04823529 17.770256,6.30647059 17.770256,4.15764706 C17.770256,2.00882353 19.5093976,0.266470588 21.6549849,0.266470588 C23.8011596,0.266470588 25.5403012,2.00882353 25.5403012,4.15764706" id="Fill-6"></path>
            <path d="M38.8983886,31.8094118 C38.8983886,32.5182353 38.3245482,33.0947059 37.6191416,33.0947059 L5.4635241,33.0947059 C4.75811747,33.0947059 4.18486446,32.5182353 4.18486446,31.8094118 L4.18486446,16.9041176 C4.18486446,16.1952941 4.75811747,15.6188235 5.4635241,15.6188235 L37.6191416,15.6188235 C38.3245482,15.6188235 38.8983886,16.1952941 38.8983886,16.9041176 L38.8983886,31.8094118 L38.8983886,31.8094118 Z M42.7690211,16.9041176 C42.7690211,14.0576471 40.4589759,11.7417647 37.6191416,11.7417647 L5.4635241,11.7417647 C2.62310241,11.7417647 0.313057229,14.0576471 0.313057229,16.9041176 L0.313057229,31.8094118 C0.313057229,34.6564706 2.62310241,36.9723529 5.4635241,36.9723529 L37.6191416,36.9723529 C40.4589759,36.9723529 42.7690211,34.6564706 42.7690211,31.8094118 L42.7690211,16.9041176 L42.7690211,16.9041176 Z" id="Fill-7"></path>
            <path d="M16.8522289,27.4235294 C15.9418373,27.4235294 15.2035392,26.6841176 15.2035392,25.7723529 C15.2035392,24.8470588 14.4523193,24.0941176 13.5284187,24.0941176 C12.6045181,24.0941176 11.8527108,24.8470588 11.8527108,25.7723529 C11.8527108,26.6841176 11.115,27.4235294 10.2040211,27.4235294 C9.29362952,27.4235294 8.55591867,26.6841176 8.55591867,25.7723529 C8.55591867,23.0264706 10.7866717,20.7923529 13.5284187,20.7923529 C16.2701657,20.7923529 18.5009187,23.0264706 18.5009187,25.7723529 C18.5009187,26.6841176 17.7632078,27.4235294 16.8522289,27.4235294" id="Fill-8"></path>
            <path d="M32.8786446,27.4235294 C31.9676657,27.4235294 31.2299548,26.6841176 31.2299548,25.7723529 C31.2299548,24.8470588 30.4781476,24.0941176 29.554247,24.0941176 C28.6309337,24.0941176 27.8791265,24.8470588 27.8791265,25.7723529 C27.8791265,26.6841176 27.1408283,27.4235294 26.2304367,27.4235294 C25.3194578,27.4235294 24.581747,26.6841176 24.581747,25.7723529 C24.581747,23.0264706 26.8125,20.7923529 29.554247,20.7923529 C32.295994,20.7923529 34.526747,23.0264706 34.526747,25.7723529 C34.526747,26.6841176 33.7890361,27.4235294 32.8786446,27.4235294" id="Fill-9"></path>
            <path d="M54.650512,30.9241176 C55.124503,31.1182353 55.7394578,31.2858824 56.4947892,31.4258824 C57.2495331,31.5670588 57.9719729,31.6364706 58.6626958,31.6364706 C59.9566265,31.6364706 60.9809639,31.3505882 61.7362952,30.7776471 C62.4910392,30.2058824 62.8687048,29.4976471 62.8687048,28.6552941 C62.8687048,28.0717647 62.7559337,27.5917647 62.5292169,27.2135294 C62.3030873,26.8358824 62.0006024,26.5164706 61.6235241,26.2570588 C61.2458584,25.9982353 60.8194428,25.7876471 60.3448645,25.6252941 C59.8702861,25.4635294 59.3851355,25.2964706 58.8894127,25.1229412 C58.3496386,24.9505882 57.815738,24.7564706 57.2877108,24.54 C56.758509,24.3241176 56.2892169,24.0488235 55.8798343,23.7135294 C55.4698645,23.3788235 55.1409488,22.9741176 54.8930873,22.4982353 C54.6446386,22.0235294 54.5207078,21.4294118 54.5207078,20.7158824 C54.5207078,19.3988235 55.0005723,18.3294118 55.9608886,17.5076471 C56.9200301,16.6876471 58.4036747,16.2770588 60.4100602,16.2770588 C61.2511446,16.2770588 62.0652108,16.3529412 62.8528464,16.5035294 C63.6398946,16.6552941 64.2489759,16.8170588 64.6806777,16.99 C64.5726054,17.6164706 64.4216566,18.2317647 64.2278313,18.8364706 C63.7749849,18.6858824 63.1976205,18.5341176 62.4969127,18.3829412 C61.7956175,18.2317647 61.0673042,18.1558824 60.3125602,18.1558824 C58.9968976,18.1558824 58.0635994,18.3888235 57.5138404,18.8529412 C56.963494,19.3176471 56.6892018,19.9276471 56.6892018,20.6835294 C56.6892018,21.0947059 56.7808283,21.4452941 56.963494,21.7370588 C57.146747,22.0282353 57.3951958,22.2776471 57.708253,22.4823529 C58.0201355,22.6876471 58.3766566,22.8664706 58.7754669,23.0170588 C59.1748645,23.1682353 59.6012801,23.3088235 60.0541265,23.4382353 C60.6361898,23.6323529 61.2235392,23.8429412 61.8173494,24.07 C62.4105723,24.2970588 62.949759,24.5941176 63.435497,24.9611765 C63.9200602,25.3288235 64.3194578,25.7929412 64.6319277,26.3547059 C64.9449849,26.9170588 65.1012199,27.6182353 65.1012199,28.4611765 C65.1012199,29.2388235 64.9449849,29.9464706 64.6319277,30.5835294 C64.3194578,31.2211765 63.8824699,31.7611765 63.3221386,32.2035294 C62.7606325,32.6470588 62.0922289,32.9870588 61.315753,33.2247059 C60.5392771,33.4623529 59.6870331,33.5811765 58.7596084,33.5811765 C57.7241114,33.5811765 56.8019729,33.5158824 55.9931928,33.3864706 C55.1844127,33.2564706 54.5318675,33.0847059 54.0355572,32.8682353 C54.1653614,32.22 54.369759,31.5717647 54.650512,30.9241176" id="Fill-10"></path>
            <path d="M67.1739759,16.6652941 C67.3031928,16.6447059 67.4864458,16.6282353 67.7237349,16.6176471 C67.9610241,16.6064706 68.1337048,16.6011765 68.2417771,16.6011765 C68.370994,16.6011765 68.5489608,16.6064706 68.7756777,16.6176471 C69.0018072,16.6282353 69.1803614,16.6447059 69.3095783,16.6652941 L69.3095783,25.9658824 C69.3095783,27.1329412 69.4276355,28.0888235 69.6649247,28.8335294 C69.9028012,29.5794118 70.2528614,30.1623529 70.7168675,30.5841176 C71.1802861,31.0052941 71.7470783,31.2964706 72.4154819,31.4588235 C73.0838855,31.6205882 73.8392169,31.7017647 74.6803012,31.7017647 C75.392756,31.7017647 76.0282681,31.6641176 76.5897741,31.5882353 C77.1501054,31.5129412 77.6464157,31.41 78.0781175,31.2805882 L78.0781175,16.6652941 C78.2073343,16.6447059 78.39,16.6282353 78.6278765,16.6176471 C78.8651657,16.6064706 79.037259,16.6011765 79.1459187,16.6011765 C79.2751355,16.6011765 79.4531024,16.6064706 79.6798193,16.6176471 C79.9065361,16.6282353 80.0839157,16.6447059 80.2131325,16.6652941 L80.2131325,32.7711765 C79.4149247,32.9870588 78.5250904,33.1758824 77.5442169,33.3382353 C76.5621687,33.5005882 75.5542771,33.5811765 74.5187801,33.5811765 C73.5044277,33.5811765 72.5499849,33.4841176 71.6554518,33.29 C70.759744,33.0947059 69.9832681,32.7223529 69.3254367,32.1717647 C68.6676054,31.6205882 68.1448645,30.8588235 67.7566265,29.8870588 C67.3683886,28.9147059 67.1739759,27.6511765 67.1739759,26.0958824 L67.1739759,16.6652941" id="Fill-11"></path>
            <path d="M85.1721235,31.0858824 C85.6678464,31.2805882 86.1800151,31.4264706 86.7086295,31.5235294 C87.237244,31.6205882 87.943238,31.6694118 88.8283735,31.6694118 C89.6694578,31.6694118 90.4670783,31.5347059 91.2224096,31.2641176 C91.9771536,30.9941176 92.6349849,30.5676471 93.1959036,29.9841176 C93.7568223,29.4011765 94.1996837,28.6611765 94.5227259,27.7647059 C94.8463554,26.8682353 95.0078765,25.7935294 95.0078765,24.54 C95.0078765,22.5529412 94.6360843,20.9976471 93.8919127,19.8735294 C93.147741,18.7505882 91.9448494,18.1888235 90.2844127,18.1888235 C89.7663705,18.1888235 89.2054518,18.2752941 88.6016566,18.4482353 C87.9978614,18.6211765 87.4422289,18.9176471 86.9353464,19.3394118 C86.4284639,19.7605882 86.0079217,20.3111765 85.6737199,20.9917647 C85.3389307,21.6723529 85.1721235,22.5311765 85.1721235,23.5682353 L85.1721235,31.0858824 L85.1721235,31.0858824 Z M83.0365211,16.6652941 C83.165738,16.6447059 83.3278464,16.6282353 83.5216717,16.6176471 C83.715497,16.6064706 83.8781928,16.6011765 84.0068223,16.6011765 C84.1366265,16.6011765 84.2987349,16.6064706 84.4925602,16.6176471 C84.6863855,16.6282353 84.8479066,16.6447059 84.9777108,16.6652941 L85.1721235,18.9341176 C85.6249699,18.2429412 86.2775151,17.6276471 87.1291717,17.0870588 C87.9814157,16.5470588 89.0873946,16.2770588 90.4459337,16.2770588 C91.4596988,16.2770588 92.3877108,16.4341176 93.2287952,16.7470588 C94.0698795,17.06 94.7870331,17.5523529 95.380256,18.2211765 C95.9734789,18.8911765 96.4374849,19.7335294 96.7716867,20.7488235 C97.1058886,21.7647059 97.2732831,22.9847059 97.2732831,24.4105882 C97.2732831,25.8364706 97.0788705,27.1164706 96.6912199,28.2505882 C96.3023946,29.3847059 95.7361898,30.3458824 94.9920181,31.1347059 C94.2478464,31.9235294 93.3304066,32.5282353 92.2420482,32.9494118 C91.1525151,33.3705882 89.9061596,33.5811765 88.504744,33.5811765 C87.9867018,33.5811765 87.4257831,33.5376471 86.8225753,33.4517647 C86.2181928,33.3652941 85.6678464,33.2352941 85.1721235,33.0629412 L85.1721235,40.84 C85.0423193,40.8611765 84.8590663,40.8776471 84.6217771,40.8888235 C84.3839006,40.8988235 84.2123946,40.9047059 84.1043223,40.9047059 C83.9745181,40.9047059 83.7965512,40.8988235 83.5704217,40.8888235 C83.3437048,40.8776471 83.165738,40.8611765 83.0365211,40.84 L83.0365211,16.6652941 L83.0365211,16.6652941 Z" id="Fill-12"></path>
            <path d="M101.880452,31.0858824 C102.376175,31.2805882 102.888931,31.4264706 103.417545,31.5235294 C103.945572,31.6205882 104.652154,31.6694118 105.537289,31.6694118 C106.378373,31.6694118 107.175994,31.5347059 107.930738,31.2641176 C108.686069,30.9941176 109.343313,30.5676471 109.904819,29.9841176 C110.465738,29.4011765 110.908012,28.6611765 111.231642,27.7647059 C111.554684,26.8682353 111.716792,25.7935294 111.716792,24.54 C111.716792,22.5529412 111.344413,20.9976471 110.600241,19.8735294 C109.856657,18.7505882 108.653765,18.1888235 106.992741,18.1888235 C106.474699,18.1888235 105.91378,18.2752941 105.309985,18.4482353 C104.70619,18.6211765 104.150557,18.9176471 103.643675,19.3394118 C103.136792,19.7605882 102.71625,20.3111765 102.382048,20.9917647 C102.047259,21.6723529 101.880452,22.5311765 101.880452,23.5682353 L101.880452,31.0858824 L101.880452,31.0858824 Z M99.7448494,16.6652941 C99.8740663,16.6447059 100.036175,16.6282353 100.230587,16.6176471 C100.424413,16.6064706 100.586521,16.6011765 100.715738,16.6011765 C100.844955,16.6011765 101.007063,16.6064706 101.200889,16.6176471 C101.395301,16.6282353 101.556822,16.6447059 101.686039,16.6652941 L101.880452,18.9341176 C102.333298,18.2429412 102.985843,17.6276471 103.838087,17.0870588 C104.689744,16.5470588 105.795136,16.2770588 107.154262,16.2770588 C108.168614,16.2770588 109.095452,16.4341176 109.937123,16.7470588 C110.778208,17.06 111.494774,17.5523529 112.088584,18.2211765 C112.682395,18.8911765 113.145813,19.7335294 113.480602,20.7488235 C113.814217,21.7647059 113.981611,22.9847059 113.981611,24.4105882 C113.981611,25.8364706 113.787786,27.1164706 113.398961,28.2505882 C113.01131,29.3847059 112.444518,30.3458824 111.700934,31.1347059 C110.956762,31.9235294 110.03991,32.5282353 108.950964,32.9494118 C107.860843,33.3705882 106.615075,33.5811765 105.213072,33.5811765 C104.695617,33.5811765 104.134111,33.5376471 103.530904,33.4517647 C102.926521,33.3652941 102.376175,33.2352941 101.880452,33.0629412 L101.880452,40.84 C101.751235,40.8611765 101.567395,40.8776471 101.330693,40.8888235 C101.092816,40.8988235 100.920723,40.9047059 100.812651,40.9047059 C100.683434,40.9047059 100.50488,40.8988235 100.27875,40.8888235 C100.052033,40.8776471 99.8740663,40.8611765 99.7448494,40.84 L99.7448494,16.6652941 L99.7448494,16.6652941 Z" id="Fill-13"></path>
            <path d="M123.427952,31.7017647 C125.153584,31.7017647 126.442229,31.0970588 127.294473,29.8870588 C128.14613,28.6776471 128.572545,27.0247059 128.572545,24.9294118 C128.572545,22.8335294 128.14613,21.1811765 127.294473,19.9711765 C126.442229,18.7617647 125.153584,18.1564706 123.427952,18.1564706 C121.701145,18.1564706 120.413675,18.7617647 119.560843,19.9711765 C118.708599,21.1811765 118.283358,22.8335294 118.283358,24.9294118 C118.283358,27.0247059 118.708599,28.6776471 119.560843,29.8870588 C120.413675,31.0970588 121.701145,31.7017647 123.427952,31.7017647 L123.427952,31.7017647 Z M123.427952,33.5811765 C122.198042,33.5811765 121.119081,33.3594118 120.191657,32.9170588 C119.264819,32.4741176 118.49363,31.8635294 117.878675,31.0858824 C117.263133,30.3082353 116.805587,29.3905882 116.50369,28.3317647 C116.201792,27.2735294 116.050256,26.1394118 116.050256,24.9294118 C116.050256,23.7194118 116.201792,22.5852941 116.50369,21.5264706 C116.805587,20.4682353 117.263133,19.55 117.878675,18.7723529 C118.49363,17.9941176 119.264819,17.3841176 120.191657,16.9411765 C121.119081,16.4982353 122.198042,16.2770588 123.427952,16.2770588 C124.657274,16.2770588 125.729774,16.4982353 126.647214,16.9411765 C127.564066,17.3841176 128.329383,17.9941176 128.944337,18.7723529 C129.559292,19.55 130.023298,20.4682353 130.335181,21.5264706 C130.648238,22.5852941 130.804473,23.7194118 130.804473,24.9294118 C130.804473,26.1394118 130.648238,27.2735294 130.335181,28.3317647 C130.023298,29.3905882 129.559292,30.3082353 128.944337,31.0858824 C128.329383,31.8635294 127.564066,32.4741176 126.647214,32.9170588 C125.729774,33.3594118 124.657274,33.5811765 123.427952,33.5811765 L123.427952,33.5811765 Z" id="Fill-14"></path>
            <path d="M133.023479,16.6652941 C133.19616,16.6447059 133.363554,16.6282353 133.525075,16.6176471 C133.687184,16.6064706 133.842831,16.6011765 133.994367,16.6011765 C134.166461,16.6011765 134.327982,16.6064706 134.479518,16.6176471 C134.62988,16.6282353 134.791988,16.6447059 134.964669,16.6652941 C135.007545,17.0547059 135.040437,17.5135294 135.061581,18.0429412 C135.083313,18.5723529 135.094473,19.0529412 135.094473,19.4852941 C135.525587,18.6864706 136.129383,18.0105882 136.905858,17.46 C137.682922,16.9088235 138.707259,16.6335294 139.980045,16.6335294 L140.319533,16.6335294 C140.438178,16.6335294 140.572681,16.6447059 140.724217,16.6652941 C140.788825,17.0335294 140.821717,17.3788235 140.821717,17.7029412 C140.821717,18.0488235 140.788825,18.3835294 140.724217,18.7070588 C140.551536,18.6864706 140.417033,18.6747059 140.319533,18.6747059 L140.012349,18.6747059 C138.545738,18.6747059 137.369864,19.14 136.485316,20.0682353 C135.601355,20.9976471 135.159081,22.5423529 135.159081,24.7023529 L135.159081,33.1923529 C135.029277,33.2135294 134.85131,33.23 134.625181,33.2411765 C134.398464,33.2517647 134.220497,33.2570588 134.091867,33.2570588 C133.983208,33.2570588 133.810527,33.2517647 133.573825,33.2411765 C133.335361,33.23 133.153283,33.2135294 133.023479,33.1923529 L133.023479,16.6652941" id="Fill-15"></path>
            <path d="M158.228991,30.47 C158.638373,30.6217647 159.058916,30.7294118 159.490617,30.7947059 C159.921732,30.8588235 160.482063,30.8911765 161.172786,30.8911765 C161.949849,30.8911765 162.66113,30.7670588 163.307801,30.5188235 C163.955648,30.2705882 164.510693,29.8870588 164.974699,29.3688235 C165.438117,28.85 165.804623,28.1964706 166.074804,27.4082353 C166.34381,26.62 166.479488,25.6858824 166.479488,24.6047059 C166.479488,22.8764706 166.160557,21.5052941 165.525045,20.4894118 C164.888358,19.4747059 163.846988,18.9664706 162.402108,18.9664706 C161.862922,18.9664706 161.34488,19.0641176 160.849744,19.2582353 C160.352259,19.4523529 159.91116,19.7447059 159.522334,20.1329412 C159.134684,20.5217647 158.821039,21.0135294 158.58375,21.6076471 C158.346461,22.2017647 158.228991,22.9094118 158.228991,23.73 L158.228991,30.47 L158.228991,30.47 Z M155.025587,16.5688235 C155.240557,16.5258824 155.461988,16.4935294 155.688117,16.4711765 C155.915422,16.45 156.14625,16.4388235 156.384714,16.4388235 C156.599684,16.4388235 156.825813,16.45 157.064277,16.4711765 C157.300392,16.4935294 157.526521,16.5258824 157.742666,16.5688235 C157.764398,16.6123529 157.791416,16.7470588 157.82372,16.9735294 C157.856611,17.2005882 157.888328,17.4435294 157.92122,17.7029412 C157.952937,17.9623529 157.985828,18.2105882 158.018133,18.4482353 C158.050437,18.6864706 158.066883,18.8370588 158.066883,18.9017647 C158.281852,18.5564706 158.540873,18.2211765 158.842771,17.8970588 C159.144669,17.5729412 159.506476,17.2817647 159.927018,17.0223529 C160.34756,16.7629412 160.821551,16.5576471 161.350753,16.4064706 C161.87878,16.2552941 162.466717,16.18 163.114563,16.18 C164.084864,16.18 164.985858,16.3417647 165.815783,16.6652941 C166.645708,16.99 167.358163,17.4923529 167.951386,18.1729412 C168.544021,18.8535294 169.008027,19.7170588 169.342229,20.7647059 C169.677018,21.8135294 169.844413,23.0494118 169.844413,24.4752941 C169.844413,27.3270588 169.073223,29.5576471 167.530843,31.1670588 C165.988464,32.7764706 163.804111,33.5811765 160.978373,33.5811765 C160.503795,33.5811765 160.018645,33.5488235 159.522334,33.4841176 C159.026024,33.4194118 158.59491,33.3329412 158.228991,33.2247059 L158.228991,40.84 C157.96997,40.8829412 157.69509,40.9152941 157.403178,40.9376471 C157.111852,40.9582353 156.848133,40.9694118 156.610843,40.9694118 C156.373554,40.9694118 156.10866,40.9582353 155.817922,40.9376471 C155.526596,40.9152941 155.261702,40.8829412 155.025587,40.84 L155.025587,16.5688235 L155.025587,16.5688235 Z" id="Fill-16"></path>
            <path d="M181.959081,25.3829412 C181.636039,25.3394118 181.225482,25.2964706 180.729759,25.2529412 C180.233449,25.21 179.812907,25.1882353 179.468133,25.1882353 C178.130738,25.1882353 177.111099,25.4370588 176.410979,25.9335294 C175.708509,26.4305882 175.359036,27.1864706 175.359036,28.2017647 C175.359036,28.85 175.477093,29.3582353 175.714383,29.7247059 C175.951672,30.0923529 176.24887,30.3729412 176.604217,30.5676471 C176.960151,30.7623529 177.353675,30.8811765 177.785377,30.9241176 C178.216491,30.9676471 178.627048,30.9888235 179.014699,30.9888235 C179.511009,30.9888235 180.023178,30.9617647 180.551205,30.9076471 C181.080407,30.8541176 181.549699,30.7729412 181.959081,30.6647059 L181.959081,25.3829412 L181.959081,25.3829412 Z M181.959081,22.2394118 C181.959081,20.9652941 181.636039,20.0794118 180.98878,19.5823529 C180.340934,19.0852941 179.403524,18.8370588 178.173614,18.8370588 C177.418283,18.8370588 176.712877,18.8970588 176.054458,19.0152941 C175.396627,19.1341176 174.754654,19.2905882 174.129127,19.4852941 C173.719744,18.7723529 173.514172,17.9188235 173.514172,16.9247059 C174.247771,16.6876471 175.056551,16.5035294 175.941687,16.3741176 C176.825648,16.2441176 177.677304,16.18 178.497244,16.18 C180.654578,16.18 182.29387,16.6711765 183.415708,17.6541176 C184.536958,18.6376471 185.097877,20.2094118 185.097877,22.3688235 L185.097877,32.7711765 C184.342545,32.9441176 183.425693,33.1223529 182.347907,33.3058824 C181.268358,33.4888235 180.169428,33.5811765 179.04759,33.5811765 C177.990361,33.5811765 177.035919,33.4841176 176.183675,33.29 C175.330843,33.0947059 174.608404,32.7823529 174.015768,32.35 C173.422545,31.9176471 172.964413,31.3670588 172.640783,30.6970588 C172.317741,30.0276471 172.155633,29.2176471 172.155633,28.2670588 C172.155633,27.3382353 172.343584,26.5223529 172.72125,25.8205882 C173.098916,25.1182353 173.611084,24.5352941 174.258931,24.0705882 C174.905602,23.6058824 175.649774,23.26 176.490858,23.0335294 C177.33253,22.8064706 178.216491,22.6935294 179.144503,22.6935294 C179.834639,22.6935294 180.400843,22.7094118 180.843117,22.7417647 C181.285392,22.7741176 181.657184,22.8123529 181.959081,22.8552941 L181.959081,22.2394118 L181.959081,22.2394118 Z" id="Fill-17"></path>
            <path d="M187.939473,9.43941176 C188.176762,9.39647059 188.441657,9.36411765 188.731807,9.34235294 C189.02372,9.32058824 189.28744,9.31 189.524729,9.31 C189.762018,9.31 190.026913,9.32058824 190.317063,9.34235294 C190.608976,9.36411765 190.872696,9.39647059 191.109985,9.43941176 L191.109985,28.1694118 C191.109985,28.7747059 191.164021,29.25 191.272681,29.5952941 C191.380166,29.9411765 191.525828,30.2058824 191.709081,30.3894118 C191.892334,30.5729412 192.108479,30.6917647 192.355753,30.7458824 C192.603614,30.8 192.867922,30.8270588 193.148675,30.8270588 C193.343087,30.8270588 193.563343,30.8158824 193.81238,30.7947059 C194.060241,30.7729412 194.270512,30.7405882 194.443193,30.6970588 C194.637605,31.4535294 194.733931,32.2747059 194.733931,33.16 C194.432033,33.2676471 194.065527,33.3382353 193.634413,33.3705882 C193.202711,33.4029412 192.803901,33.4194118 192.437395,33.4194118 C191.81128,33.4194118 191.22863,33.3429412 190.689443,33.1923529 C190.150256,33.0417647 189.67509,32.7923529 189.265708,32.4470588 C188.856325,32.1017647 188.533283,31.6370588 188.295407,31.0535294 C188.058117,30.47 187.939473,29.7470588 187.939473,28.8823529 L187.939473,9.43941176" id="Fill-18"></path>
            <path d="M151.628946,31.3776471 C151.068027,31.5717647 150.409608,31.6694118 149.654864,31.6694118 C149.352967,31.6694118 149.056355,31.6423529 148.76503,31.5882353 C148.474292,31.5347059 148.215271,31.4211765 147.989142,31.2482353 C147.761837,31.0752941 147.578584,30.8323529 147.438208,30.5188235 C147.298419,30.2058824 147.227937,29.7794118 147.227937,29.2388235 L147.227937,18.48 L151.692967,18.48 C151.714699,18.3723529 151.730557,18.2323529 151.741717,18.0588235 C151.752289,17.8870588 151.757575,17.7141176 151.757575,17.5405882 C151.757575,17.3682353 151.752289,17.2058824 151.741717,17.0547059 C151.730557,16.9035294 151.714699,16.7741176 151.692967,16.6652941 L147.227937,16.6652941 L147.227937,12.6894118 L145.092334,12.6894118 L145.092334,16.6652941 L142.277756,16.6652941 C142.256611,16.7741176 142.239578,16.9035294 142.229006,17.0547059 C142.217846,17.2058824 142.213148,17.3682353 142.213148,17.5405882 C142.213148,17.7141176 142.217846,17.8870588 142.229006,18.0588235 C142.239578,18.2323529 142.256611,18.3723529 142.277756,18.48 L145.092334,18.48 L145.092334,29.3358824 C145.092334,30.8264706 145.475286,31.9017647 146.24119,32.5605882 C147.006506,33.2188235 148.005,33.5488235 149.233735,33.5488235 C150.269819,33.5488235 151.175512,33.4294118 151.951988,33.1923529 C151.88738,32.5441176 151.779307,31.94 151.628946,31.3776471" id="Fill-19"></path>
        </g>
    </g>
</svg>